HIERARCHY
ROOT Root
{
  OFFSET 0.0 0.0 0.0
  CHANNELS 6 Xposition Yposition Zposition Zrotation Yrotation Xrotation
  JOINT Hips
  {
    OFFSET 0.0 100.0 0.0
    CHANNELS 6 Xposition Yposition Zposition Zrotation Yrotation Xrotation
    JOINT Spine1
    {
      OFFSET 5.003913 -0.037094 -0.013727
      CHANNELS 3 Zrotation Yrotation Xrotation
      JOINT Spine2
      {
        OFFSET 7.125363 -1e-06 0.0
        CHANNELS 3 Zrotation Yrotation Xrotation
        JOINT Chest
        {
          OFFSET 7.594027 1e-06 0.0
          CHANNELS 3 Zrotation Yrotation Xrotation
          JOINT Neck1
          {
            OFFSET 26.313086 -0.460272 -0.181672
            CHANNELS 3 Zrotation Yrotation Xrotation
            JOINT Neck2
            {
              OFFSET 8.045911 0.0 0.0
              CHANNELS 3 Zrotation Yrotation Xrotation
              JOINT Head
              {
                OFFSET 6.432774 0.0 0.0
                CHANNELS 3 Zrotation Yrotation Xrotation
                JOINT HeadEnd
                {
                  OFFSET 16.169773 0.06451 0.00362
                  CHANNELS 3 Zrotation Yrotation Xrotation
                }
                JOINT Jaw
                {
                  OFFSET 0.108741 3.12938 0.002639
                  CHANNELS 3 Zrotation Yrotation Xrotation
                }
                JOINT LeftEye
                {
                  OFFSET 4.45173 8.166359 3.206392
                  CHANNELS 3 Zrotation Yrotation Xrotation
                }
                JOINT RightEye
                {
                  OFFSET 4.436895 8.135758 -3.222429
                  CHANNELS 3 Zrotation Yrotation Xrotation
                }
              }
            }
          }
          JOINT LeftShoulder
          {
            OFFSET 23.218927 5.195579 1.621656
            CHANNELS 3 Zrotation Yrotation Xrotation
            JOINT LeftArm
            {
              OFFSET 15.902118 2e-06 -2e-06
              CHANNELS 3 Zrotation Yrotation Xrotation
              JOINT LeftForeArm
              {
                OFFSET 28.739307 0.0 -1e-06
                CHANNELS 3 Zrotation Yrotation Xrotation
                JOINT LeftHand
                {
                  OFFSET 27.093981 -4e-06 0.0
                  CHANNELS 3 Zrotation Yrotation Xrotation
                  JOINT LeftHandThumb1
                  {
                    OFFSET 2.276781 3.380274 0.83384
                    CHANNELS 3 Zrotation Yrotation Xrotation
                    JOINT LeftHandThumb2
                    {
                      OFFSET 4.705309 -1e-06 -1e-06
                      CHANNELS 3 Zrotation Yrotation Xrotation
                      JOINT LeftHandThumb3
                      {
                        OFFSET 2.798515 0.0 3e-06
                        CHANNELS 3 Zrotation Yrotation Xrotation
                        JOINT LeftHandThumbEnd
                        {
                          OFFSET 3.180793 4e-06 -4e-06
                          CHANNELS 3 Zrotation Yrotation Xrotation
                        }
                      }
                    }
                  }
                  JOINT LeftHandIndex1
                  {
                    OFFSET 3.247786 2.352677 0.137192
                    CHANNELS 3 Zrotation Yrotation Xrotation
                    JOINT LeftHandIndex2
                    {
                      OFFSET 6.367095 1e-06 0.0
                      CHANNELS 3 Zrotation Yrotation Xrotation
                      JOINT LeftHandIndex3
                      {
                        OFFSET 3.662364 0.0 0.0
                        CHANNELS 3 Zrotation Yrotation Xrotation
                        JOINT LeftHandIndex4
                        {
                          OFFSET 2.329242 4e-06 -4e-06
                          CHANNELS 3 Zrotation Yrotation Xrotation
                          JOINT LeftHandIndexEnd
                          {
                            OFFSET 2.767823 1e-06 0.0
                            CHANNELS 3 Zrotation Yrotation Xrotation
                          }
                        }
                      }
                    }
                  }
                  JOINT LeftHandMiddle1
                  {
                    OFFSET 3.163612 0.945023 -0.406112
                    CHANNELS 3 Zrotation Yrotation Xrotation
                    JOINT LeftHandMiddle2
                    {
                      OFFSET 6.276789 3e-06 0.0
                      CHANNELS 3 Zrotation Yrotation Xrotation
                      JOINT LeftHandMiddle3
                      {
                        OFFSET 4.35652 -1e-06 4e-06
                        CHANNELS 3 Zrotation Yrotation Xrotation
                        JOINT LeftHandMiddle4
                        {
                          OFFSET 2.996877 0.0 8e-06
                          CHANNELS 3 Zrotation Yrotation Xrotation
                          JOINT LeftHandMiddleEnd
                          {
                            OFFSET 2.323256 3e-06 -4e-06
                            CHANNELS 3 Zrotation Yrotation Xrotation
                          }
                        }
                      }
                    }
                  }
                  JOINT LeftHandRing1
                  {
                    OFFSET 2.882606 -0.309162 0.107445
                    CHANNELS 3 Zrotation Yrotation Xrotation
                    JOINT LeftHandRing2
                    {
                      OFFSET 6.033198 0.0 4e-06
                      CHANNELS 3 Zrotation Yrotation Xrotation
                      JOINT LeftHandRing3
                      {
                        OFFSET 4.350578 3e-06 0.0
                        CHANNELS 3 Zrotation Yrotation Xrotation
                        JOINT LeftHandRing4
                        {
                          OFFSET 2.651321 2e-06 -7e-06
                          CHANNELS 3 Zrotation Yrotation Xrotation
                          JOINT LeftHandRingEnd
                          {
                            OFFSET 1.937663 1e-06 -4e-06
                            CHANNELS 3 Zrotation Yrotation Xrotation
                          }
                        }
                      }
                    }
                  }
                  JOINT LeftHandPinky1
                  {
                    OFFSET 2.865315 -1.525436 0.575687
                    CHANNELS 3 Zrotation Yrotation Xrotation
                    JOINT LeftHandPinky2
                    {
                      OFFSET 5.54936 1e-06 -8e-06
                      CHANNELS 3 Zrotation Yrotation Xrotation
                      JOINT LeftHandPinky3
                      {
                        OFFSET 3.070974 0.0 -4e-06
                        CHANNELS 3 Zrotation Yrotation Xrotation
                        JOINT LeftHandPinky4
                        {
                          OFFSET 1.549672 1e-06 0.0
                          CHANNELS 3 Zrotation Yrotation Xrotation
                          JOINT LeftHandPinkyEnd
                          {
                            OFFSET 1.952123 0.0 0.0
                            CHANNELS 3 Zrotation Yrotation Xrotation
                          }
                        }
                      }
                    }
                  }
                }
              }
            }
          }
          JOINT RightShoulder
          {
            OFFSET 23.161716 5.296122 -1.380114
            CHANNELS 3 Zrotation Yrotation Xrotation
            JOINT RightArm
            {
              OFFSET -16.027195 -2e-06 1.1e-05
              CHANNELS 3 Zrotation Yrotation Xrotation
              JOINT RightForeArm
              {
                OFFSET -28.736639 4e-06 2e-06
                CHANNELS 3 Zrotation Yrotation Xrotation
                JOINT RightHand
                {
                  OFFSET -27.133619 6e-06 0.0
                  CHANNELS 3 Zrotation Yrotation Xrotation
                  JOINT RightHandThumb1
                  {
                    OFFSET -2.274328 -3.351035 -0.83067
                    CHANNELS 3 Zrotation Yrotation Xrotation
                    JOINT RightHandThumb2
                    {
                      OFFSET -4.703594 -3e-06 2e-06
                      CHANNELS 3 Zrotation Yrotation Xrotation
                      JOINT RightHandThumb3
                      {
                        OFFSET -2.794935 -4e-06 -3e-06
                        CHANNELS 3 Zrotation Yrotation Xrotation
                        JOINT RightHandThumbEnd
                        {
                          OFFSET -3.183852 4e-06 1e-06
                          CHANNELS 3 Zrotation Yrotation Xrotation
                        }
                      }
                    }
                  }
                  JOINT RightHandIndex1
                  {
                    OFFSET -3.253496 -2.33755 -0.127667
                    CHANNELS 3 Zrotation Yrotation Xrotation
                    JOINT RightHandIndex2
                    {
                      OFFSET -6.344434 0.0 0.0
                      CHANNELS 3 Zrotation Yrotation Xrotation
                      JOINT RightHandIndex3
                      {
                        OFFSET -3.654871 0.0 -8e-06
                        CHANNELS 3 Zrotation Yrotation Xrotation
                        JOINT RightHandIndex4
                        {
                          OFFSET -2.327586 -1e-06 0.0
                          CHANNELS 3 Zrotation Yrotation Xrotation
                          JOINT RightHandIndexEnd
                          {
                            OFFSET -2.770001 3e-06 8e-06
                            CHANNELS 3 Zrotation Yrotation Xrotation
                          }
                        }
                      }
                    }
                  }
                  JOINT RightHandMiddle1
                  {
                    OFFSET -3.168223 -0.944764 0.411762
                    CHANNELS 3 Zrotation Yrotation Xrotation
                    JOINT RightHandMiddle2
                    {
                      OFFSET -6.266691 -1e-06 -4e-06
                      CHANNELS 3 Zrotation Yrotation Xrotation
                      JOINT RightHandMiddle3
                      {
                        OFFSET -4.348901 0.0 0.0
                        CHANNELS 3 Zrotation Yrotation Xrotation
                        JOINT RightHandMiddle4
                        {
                          OFFSET -3.00024 2e-06 -4e-06
                          CHANNELS 3 Zrotation Yrotation Xrotation
                          JOINT RightHandMiddleEnd
                          {
                            OFFSET -2.321477 -4e-06 -4e-06
                            CHANNELS 3 Zrotation Yrotation Xrotation
                          }
                        }
                      }
                    }
                  }
                  JOINT RightHandRing1
                  {
                    OFFSET -2.885654 0.293261 -0.119232
                    CHANNELS 3 Zrotation Yrotation Xrotation
                    JOINT RightHandRing2
                    {
                      OFFSET -6.032835 -1e-06 -4e-06
                      CHANNELS 3 Zrotation Yrotation Xrotation
                      JOINT RightHandRing3
                      {
                        OFFSET -4.33881 0.0 -4e-06
                        CHANNELS 3 Zrotation Yrotation Xrotation
                        JOINT RightHandRing4
                        {
                          OFFSET -2.654903 -4e-06 -4e-06
                          CHANNELS 3 Zrotation Yrotation Xrotation
                          JOINT RightHandRingEnd
                          {
                            OFFSET -1.935122 0.0 4e-06
                            CHANNELS 3 Zrotation Yrotation Xrotation
                          }
                        }
                      }
                    }
                  }
                  JOINT RightHandPinky1
                  {
                    OFFSET -2.866241 1.503904 -0.60527
                    CHANNELS 3 Zrotation Yrotation Xrotation
                    JOINT RightHandPinky2
                    {
                      OFFSET -5.553177 -2e-06 0.0
                      CHANNELS 3 Zrotation Yrotation Xrotation
                      JOINT RightHandPinky3
                      {
                        OFFSET -3.062664 -1e-06 -4e-06
                        CHANNELS 3 Zrotation Yrotation Xrotation
                        JOINT RightHandPinky4
                        {
                          OFFSET -1.546529 2e-06 4e-06
                          CHANNELS 3 Zrotation Yrotation Xrotation
                          JOINT RightHandPinkyEnd
                          {
                            OFFSET -1.952341 0.0 -4e-06
                            CHANNELS 3 Zrotation Yrotation Xrotation
                          }
                        }
                      }
                    }
                  }
                }
              }
            }
          }
        }
      }
    }
    JOINT LeftLeg
    {
      OFFSET -8.443107 2.567604 10.043214
      CHANNELS 3 Zrotation Yrotation Xrotation
      JOINT LeftShin
      {
        OFFSET 43.229198 1e-06 -1e-06
        CHANNELS 3 Zrotation Yrotation Xrotation
        JOINT LeftFoot
        {
          OFFSET 42.298611 1e-06 1e-06
          CHANNELS 3 Zrotation Yrotation Xrotation
          JOINT LeftToeBase
          {
            OFFSET 14.165858 1e-06 0.0
            CHANNELS 3 Zrotation Yrotation Xrotation
            JOINT LeftToeEnd
            {
              OFFSET 6.7141 -0.234461 0.0
              CHANNELS 3 Zrotation Yrotation Xrotation
            }
          }
        }
      }
    }
    JOINT RightLeg
    {
      OFFSET -8.303923 2.592729 -10.047278
      CHANNELS 3 Zrotation Yrotation Xrotation
      JOINT RightShin
      {
        OFFSET -43.369682 0.0 1e-06
        CHANNELS 3 Zrotation Yrotation Xrotation
        JOINT RightFoot
        {
          OFFSET -42.260784 4e-06 2e-06
          CHANNELS 3 Zrotation Yrotation Xrotation
          JOINT RightToeBase
          {
            OFFSET -14.222245 -2e-06 -1e-06
            CHANNELS 3 Zrotation Yrotation Xrotation
            JOINT RightToeEnd
            {
              OFFSET -6.660062 0.232574 -2e-06
              CHANNELS 3 Zrotation Yrotation Xrotation
            }
          }
        }
      }
    }
  }
}
MOTION
Frames: 4
Frame Time: 0.03333333333333333
0.0 0.0 0.0 0.0 -0.0 0.0 0.351332 99.349121 -2.003861 90.293694 1.250285 89.944672 -0.619633 0.479657 -0.275465 -11.272692 -0.463055 -0.376316 15.827209 0.159208 -2.555932 19.59103 -2.287848 2.682132 -2.512299 -0.687145 -0.049641 -32.192951 0.991486 -1.319259 6e-06 -0.0 -0.0 0.021306 0.016754 0.027104 0.034707 0.050989 0.022151 0.027932 -0.02043 0.040483 -137.043732 -71.613655 157.114594 34.963184 -37.211823 22.70141 37.602917 0.634901 0.112066 1.6205 -5.702475 11.105809 17.636631 -26.322729 52.411186 -19.46666 -14.395598 29.410385 -0.0 -8.774822 -2e-06 16.04096 -18.023087 6.107765 -0.609776 -1.795651 -3.889328 -4.80709 -11.046811 -2.937848 2e-06 -20.976017 2e-06 -5.019973 -25.03356 -4.031882 5e-06 1e-06 1e-06 -10.634535 -5.686971 -3.565586 10.573274 -17.922949 -3.1139 1e-06 -13.821209 2e-06 -0.501779 -31.181505 -4.027017 -11.415487 -59.741249 7.11524 -13.982715 -7.150198 -2.87504 13.77273 -8.401491 -3.218241 0.347733 -34.211555 0.771653 -0.96303 -17.73337 2.62102 0.0 2e-06 0.0 -17.346422 -20.095217 -4.201779 21.757561 -1.638374 3.866428 1e-06 -6.338824 1e-06 -1.697592 -22.591749 -6.194008 2e-06 -6e-06 -2e-06 44.293194 -76.991348 155.51384 36.490288 -49.542492 6.434648 35.539055 -0.037546 0.080225 1.849825 -5.311938 17.007673 22.18211 -20.375895 49.933319 -16.701807 -16.743528 28.47653 -3e-06 -12.690597 -0.0 16.180973 -17.957199 2.511098 -0.10592 -1.513857 -4.275882 -5.03904 -5.612869 -2.953555 4e-06 -11.020519 -3e-06 -6.111299 -15.895328 -3.840466 -0.0 -0.0 2e-06 -10.283369 -5.680288 -4.341838 11.028291 -11.302402 -2.372631 -1.384267 -14.238577 -6.320122 -0.625441 -26.924183 -3.827595 -4.43566 -49.922337 -3.958854 -13.708522 -7.363474 -3.720938 18.141146 -14.052739 -3.242671 5e-06 -18.78727 -0.0 -0.429714 -8.456043 2.555503 2e-06 -1e-06 1e-06 -15.923532 -20.094479 -5.473585 30.419207 -7.190826 1.735925 1e-06 -8.162922 -1e-06 -1.861901 -22.861467 -6.167941 -0.0 -3e-06 -1e-06 170.489304 -4.891266 -11.101665 21.101826 0.041384 0.076492 -78.739578 1.850301 -4.296405 -7.750207 1.538437 2.075583 -1.0 0.0 0.0 -9.062217 -5.565907 -7.520687 21.39554 -0.0108 0.011789 -79.25943 -2.820401 -7.47999 -7.703875 0.847504 1.651766 -1.000002 -0.0 -0.0 
0.0 0.0 0.0 0.0 -0.0 0.0 0.319117 99.370781 -1.991179 90.309654 1.277835 89.909157 -0.621654 0.448532 -0.301686 -11.268402 -0.444978 -0.305054 15.825849 0.164236 -2.58716 19.599651 -2.315768 2.668154 -2.484269 -0.691387 0.009897 -32.14468 0.955218 -1.31466 5e-06 0.0 -0.0 0.020573 0.019911 0.058341 0.046613 0.055052 0.05516 0.039665 -0.018259 0.069979 -137.020325 -71.606323 157.182693 35.051735 -37.22736 22.589485 37.54652 0.562097 0.070004 1.699656 -5.689028 11.271348 17.636627 -26.322735 52.41119 -19.466661 -14.395598 29.410385 -1e-06 -8.774822 -1e-06 15.989635 -17.986372 6.099308 -0.609777 -1.795655 -3.889328 -4.807088 -11.046811 -2.937848 6e-06 -20.976021 0.0 -5.01997 -25.03356 -4.03188 6e-06 1e-06 2e-06 -10.634535 -5.68697 -3.565587 10.573276 -17.922953 -3.1139 3e-06 -13.821211 2e-06 -0.501779 -31.181505 -4.027012 -11.33758 -59.675003 7.121369 -13.982714 -7.150198 -2.875042 13.772731 -8.401494 -3.218239 0.347737 -34.211555 0.771654 -0.963028 -17.733372 2.621021 0.0 1e-06 -0.0 -17.34642 -20.095221 -4.20178 21.757561 -1.638375 3.866428 1e-06 -6.338825 -0.0 -1.69759 -22.591749 -6.194007 1e-06 -5e-06 -3e-06 44.394627 -76.974106 155.520844 36.571609 -49.59095 6.216321 35.413986 -0.054247 0.063619 1.938018 -5.364202 17.045004 22.182114 -20.375891 49.933315 -16.701817 -16.743525 28.47653 -3e-06 -12.6906 -1e-06 16.138933 -17.962704 2.517295 -0.105919 -1.513855 -4.275882 -5.039041 -5.612874 -2.953556 4e-06 -11.020524 -4e-06 -6.111299 -15.895332 -3.84047 0.0 0.0 -1e-06 -10.283369 -5.680288 -4.341837 11.028292 -11.302407 -2.372636 -1.384268 -14.238583 -6.320124 -0.625437 -26.924191 -3.827603 -4.480662 -49.983463 -3.906014 -13.708524 -7.363476 -3.720942 18.141146 -14.052739 -3.242675 6e-06 -18.78727 -4e-06 -0.42971 -8.456043 2.555503 1e-06 -3e-06 -1e-06 -15.923534 -20.094486 -5.473587 30.41921 -7.190826 1.735924 1e-06 -8.162925 -3e-06 -1.861901 -22.861473 -6.167945 0.0 -3e-06 -0.0 170.631409 -4.870975 -11.057064 20.900417 0.049938 0.116081 -78.65535 1.840227 -4.405016 -7.83048 1.560078 2.077916 -1.0 1e-06 0.0 -8.967637 -5.541352 -7.480124 21.265646 -0.014952 0.026674 -79.20546 -2.843369 -7.449367 -7.75147 0.839276 1.653306 -1.000002 -0.0 -0.0 
0.0 0.0 0.0 0.0 -0.0 0.0 0.283016 99.370979 -1.989614 90.338921 1.29612 89.870056 -0.644096 0.41444 -0.320611 -11.280466 -0.437142 -0.272694 15.875846 0.161291 -2.581154 19.594364 -2.365097 2.672059 -2.499917 -0.674272 0.027749 -32.030956 0.927454 -1.296543 6e-06 0.0 0.0 0.017998 0.022535 0.072865 0.041365 0.058085 0.072729 0.036831 -0.016299 0.081196 -137.046005 -71.594452 157.255112 35.072273 -37.223942 22.602335 37.585663 0.518281 0.045938 1.751263 -5.720489 11.28303 17.636623 -26.322737 52.411194 -19.466656 -14.395597 29.410385 -0.0 -8.774821 -1e-06 15.982356 -17.964104 6.095616 -0.609776 -1.795653 -3.889327 -4.807088 -11.046809 -2.937848 3e-06 -20.976013 0.0 -5.019972 -25.033556 -4.031878 6e-06 1e-06 1e-06 -10.634533 -5.686971 -3.565586 10.573272 -17.922947 -3.113899 2e-06 -13.821205 3e-06 -0.501779 -31.181498 -4.027014 -11.341633 -59.598976 7.138779 -13.982712 -7.150197 -2.875043 13.772727 -8.401489 -3.218238 0.347731 -34.211536 0.771659 -0.963031 -17.733366 2.621022 0.0 3e-06 0.0 -17.346416 -20.095215 -4.20178 21.757557 -1.638375 3.866428 1e-06 -6.338823 0.0 -1.697592 -22.59174 -6.194003 -0.0 -4e-06 -2e-06 44.415314 -76.948029 155.558304 36.549206 -49.624523 6.109777 35.360779 -0.074309 0.050101 1.983306 -5.390135 17.211193 22.18211 -20.375891 49.933315 -16.701811 -16.743528 28.476524 -4e-06 -12.690598 1e-06 16.11351 -17.93244 2.530807 -0.10592 -1.513857 -4.275878 -5.03904 -5.612872 -2.953555 4e-06 -11.02052 -5e-06 -6.111296 -15.89533 -3.840469 -0.0 0.0 1e-06 -10.283368 -5.680286 -4.341837 11.028292 -11.302402 -2.372631 -1.384268 -14.238579 -6.320121 -0.625437 -26.924187 -3.8276 -4.515037 -50.001045 -3.864398 -13.708523 -7.363473 -3.720938 18.141146 -14.052736 -3.242675 5e-06 -18.787266 -2e-06 -0.429713 -8.456039 2.555501 2e-06 -1e-06 0.0 -15.923536 -20.094481 -5.473583 30.41921 -7.190825 1.735923 0.0 -8.162921 -1e-06 -1.861901 -22.861467 -6.167944 -1e-06 -2e-06 -1e-06 170.687424 -4.85259 -11.02629 20.840431 0.051049 0.136163 -78.632042 1.816399 -4.461099 -7.805781 1.56497 2.080758 -0.999998 -1e-06 0.0 -8.977534 -5.546824 -7.43653 21.312056 -0.010353 0.027191 -79.228943 -2.883203 -7.427118 -7.727411 0.837057 1.654375 -1.000002 0.0 -0.0 
0.0 0.0 0.0 0.0 -0.0 0.0 0.2531 99.369286 -1.992962 90.351746 1.317808 89.850578 -0.659382 0.390232 -0.328917 -11.29253 -0.430328 -0.272258 15.931495 0.156896 -2.554129 19.603523 -2.420332 2.669962 -2.527457 -0.658052 0.0569 -31.956594 0.909327 -1.281119 7e-06 0.0 0.0 0.015238 0.022712 0.074475 0.027165 0.058544 0.076305 0.024238 -0.016555 0.08023 -137.083023 -71.577744 157.318283 35.10434 -37.237232 22.663061 37.625797 0.494195 0.050722 1.812659 -5.727954 11.30997 17.636629 -26.322735 52.411194 -19.46666 -14.395594 29.410389 0.0 -8.774819 -2e-06 15.985206 -17.942905 6.080282 -0.609777 -1.795654 -3.889328 -4.807089 -11.04681 -2.937848 3e-06 -20.976019 1e-06 -5.019973 -25.03356 -4.031881 5e-06 0.0 0.0 -10.634534 -5.686971 -3.565589 10.573271 -17.922947 -3.1139 2e-06 -13.821206 1e-06 -0.501777 -31.181498 -4.027017 -11.339237 -59.53307 7.11727 -13.982714 -7.150198 -2.875042 13.772727 -8.401489 -3.218241 0.34773 -34.211544 0.771655 -0.963032 -17.73337 2.62102 -0.0 1e-06 1e-06 -17.346416 -20.095217 -4.201783 21.757555 -1.638374 3.866428 1e-06 -6.338823 2e-06 -1.697588 -22.591742 -6.194007 1e-06 -4e-06 -3e-06 44.404392 -76.91684 155.610123 36.48362 -49.650265 6.126229 35.351112 -0.059745 0.052222 1.981464 -5.461759 17.372587 22.182112 -20.375895 49.933323 -16.701807 -16.743525 28.476522 -4e-06 -12.690598 1e-06 16.093777 -17.890644 2.554585 -0.10592 -1.513855 -4.275878 -5.03904 -5.61287 -2.953555 5e-06 -11.020519 -3e-06 -6.111297 -15.895329 -3.840469 -0.0 -0.0 1e-06 -10.283368 -5.680288 -4.341839 11.02829 -11.302401 -2.372633 -1.38427 -14.238575 -6.320121 -0.62544 -26.924183 -3.827597 -4.547834 -49.986584 -3.814673 -13.708523 -7.363474 -3.720943 18.141146 -14.052737 -3.242671 6e-06 -18.787264 -1e-06 -0.42971 -8.45604 2.555505 -0.0 -1e-06 -1e-06 -15.923534 -20.094479 -5.473584 30.419205 -7.190825 1.735927 1e-06 -8.162921 -2e-06 -1.861901 -22.861467 -6.16794 -2e-06 -3e-06 -0.0 170.72345 -4.854082 -11.019885 20.816311 0.048106 0.144032 -78.619957 1.807887 -4.485066 -7.765448 1.556897 2.079739 -0.999998 0.0 -0.0 -8.977857 -5.535867 -7.382271 21.347284 -0.004965 0.01359 -79.244583 -2.944536 -7.431633 -7.690839 0.834375 1.654126 -1.000002 -0.0 0.0 
